<svg width="13" height="14" viewBox="0 0 13 14" fill="none" xmlns="http://www.w3.org/2000/svg">
<path d="M0.112305 5.89729C0.112305 2.81566 2.61046 0.317505 5.6921 0.317505C5.85536 0.317505 5.98771 0.449858 5.98771 0.613123V5.11891C5.98771 5.71207 5.50687 6.19291 4.91371 6.19291H0.407923C0.244658 6.19291 0.112305 6.06056 0.112305 5.89729Z" fill="#4640DE"/>
<path d="M7.12561 1.39138C7.12561 0.79823 7.60646 0.317383 8.19961 0.317383H11.927C12.5202 0.317383 13.001 0.798229 13.001 1.39138V5.11879C13.001 5.71194 12.5202 6.19279 11.927 6.19279H8.19961C7.60646 6.19279 7.12561 5.71195 7.12561 5.11879V1.39138Z" fill="#F7981D"/>
<path d="M7.12561 8.40396C7.12561 7.8108 7.60646 7.32996 8.19961 7.32996H12.6629C12.8496 7.32996 13.001 7.48135 13.001 7.66811C13.001 10.7262 10.5219 13.2054 7.46376 13.2054C7.27701 13.2054 7.12561 13.054 7.12561 12.8672V8.40396Z" fill="#4640DE"/>
<path d="M0.113281 8.40396C0.113281 7.8108 0.594127 7.32996 1.18728 7.32996H4.91469C5.50784 7.32996 5.98869 7.8108 5.98869 8.40396V12.1314C5.98869 12.7245 5.50784 13.2054 4.91469 13.2054H1.18728C0.594129 13.2054 0.113281 12.7245 0.113281 12.1314V8.40396Z" fill="#4640DE"/>
</svg>
